<svg id="Layer_1" enable-background="new 0 0 64 64" height="512" viewBox="0 0 64 64" width="512" xmlns="http://www.w3.org/2000/svg"><g><g><path d="m60.167 32-21-18h-10v9h-25v18h25v9h10z" fill="#db8e11"/><path d="m39.167 50.5h-10c-.276 0-.5-.224-.5-.5v-8.5h-24.5c-.276 0-.5-.224-.5-.5v-18c0-.276.224-.5.5-.5h24.5v-8.5c0-.276.224-.5.5-.5h10c.119 0 .234.042.325.121l21 18c.111.095.175.233.175.379s-.063.285-.175.379l-21 18c-.091.079-.206.121-.325.121zm-9.5-1h9.316l20.415-17.5-20.416-17.5h-9.316v8.5c0 .276-.224.5-.5.5h-24.5v17h24.5c.276 0 .5.224.5.5v8.5z" fill="#212a41"/></g><g><path d="m60.167 32-21-18v9h-25v18h25v9z" fill="#f9ac2f"/><path d="m39.167 50.5c-.071 0-.143-.015-.209-.046-.178-.082-.291-.259-.291-.454v-8.5h-24.5c-.276 0-.5-.224-.5-.5v-18c0-.276.224-.5.5-.5h24.5v-8.5c0-.195.113-.373.291-.454.175-.082.386-.054.534.075l21 18c.111.095.175.233.175.379s-.063.285-.175.379l-21 18c-.092.08-.208.121-.325.121zm-24.5-10h24.5c.276 0 .5.224.5.5v7.913l19.731-16.913-19.731-16.913v7.913c0 .276-.224.5-.5.5h-24.5z" fill="#212a41"/></g><g><g><path d="m41.167 46.151c-.141 0-.281-.06-.38-.175-.18-.21-.155-.525.055-.705l15.532-13.271-15.532-13.271c-.21-.18-.234-.495-.055-.705.18-.21.495-.233.705-.056l15.977 13.652c.11.095.175.234.175.38s-.064.285-.175.38l-15.977 13.652c-.095.08-.21.119-.325.119z" fill="#db8e11"/></g></g><g><path d="m16.167 39.5c-.276 0-.5-.224-.5-.5v-14c0-.276.224-.5.5-.5s.5.224.5.5v14c0 .276-.224.5-.5.5z" fill="#ffca4d"/></g><g><path d="m6.167 39.5c-.276 0-.5-.224-.5-.5v-14c0-.276.224-.5.5-.5s.5.224.5.5v14c0 .276-.224.5-.5.5z" fill="#f9ac2f"/></g><g><path d="m31.167 21.5c-.276 0-.5-.224-.5-.5v-5c0-.276.224-.5.5-.5s.5.224.5.5v5c0 .276-.224.5-.5.5z" fill="#f9ac2f"/></g><g><path d="m31.167 48.5c-.276 0-.5-.224-.5-.5v-5c0-.276.224-.5.5-.5s.5.224.5.5v5c0 .276-.224.5-.5.5z" fill="#f9ac2f"/></g></g></svg>